<svg width="200" height="200" viewBox="0 0 200 200" fill="none" xmlns="http://www.w3.org/2000/svg">
<g clip-path="url(#clip0_1_800)">
<path d="M35.4167 1.61203e-05H164.583C169.236 -0.00448106 173.843 0.932018 178.142 2.75592C182.441 4.57981 186.347 7.25531 189.636 10.6293C192.926 14.0032 195.535 18.0094 197.313 22.4186C199.091 26.8277 200.004 31.5533 200 36.3248V163.675C200.004 168.447 199.091 173.172 197.313 177.581C195.535 181.991 192.926 185.997 189.636 189.371C186.347 192.745 182.441 195.42 178.142 197.244C173.843 199.068 169.236 200.004 164.583 200H35.4167C30.7645 200.004 26.157 199.068 21.8581 197.244C17.5592 195.42 13.6532 192.745 10.3635 189.371C7.07392 185.997 4.46532 181.991 2.68702 177.581C0.908717 173.172 -0.00436903 168.447 1.57173e-05 163.675V36.3248C-0.00436903 31.5533 0.908717 26.8277 2.68702 22.4186C4.46532 18.0094 7.07392 14.0032 10.3635 10.6293C13.6532 7.25531 17.5592 4.57981 21.8581 2.75592C26.157 0.932018 30.7645 -0.00448106 35.4167 1.61203e-05Z" fill="#F0F0F0"/>
<path d="M14 99.9998C14 124.852 52.3006 145 99.545 145C146.789 145 185.09 124.852 185.09 99.9998C185.09 75.1476 146.789 54.9999 99.545 54.9999C52.3006 54.9999 14 75.1476 14 99.9998Z" fill="url(#paint0_radial_1_800)"/>
<path d="M99.545 141.659C144.944 141.659 181.748 123.007 181.748 99.9998C181.748 76.9925 144.944 58.3408 99.545 58.3408C54.1459 58.3408 17.3416 76.9925 17.3416 99.9998C17.3416 123.007 54.1459 141.659 99.545 141.659Z" fill="#777BB3"/>
<path d="M60.4775 105.165C64.2105 105.165 66.9973 104.476 68.7606 103.119C70.5051 101.776 71.7099 99.4492 72.3414 96.2032C72.9302 93.1691 72.7059 91.0506 71.6749 89.9073C70.6208 88.7396 68.3417 88.1474 64.9011 88.1474H58.9354L55.6281 105.165H60.4775ZM40.9653 126.127C40.6884 126.127 40.4254 126.003 40.2494 125.789C40.073 125.576 40.0015 125.294 40.0544 125.022L48.8193 79.9255C48.9041 79.4896 49.2862 79.1746 49.7305 79.1746H68.6211C74.558 79.1746 78.977 80.7866 81.7545 83.9664C84.5469 87.1629 85.4092 91.6311 84.3173 97.2465C83.873 99.5342 83.1088 101.659 82.046 103.561C80.9819 105.466 79.5757 107.228 77.8656 108.799C75.8185 110.715 73.5017 112.105 70.9856 112.922C68.5094 113.729 65.3293 114.138 61.5338 114.138H53.8846L51.7002 125.376C51.6154 125.812 51.2336 126.127 50.7893 126.127H40.9653Z" fill="black"/>
<path d="M59.7006 89.0757H64.9011C69.0537 89.0757 70.4962 89.9869 70.9863 90.5299C71.7994 91.4315 71.9528 93.3325 71.4303 96.0271C70.843 99.0438 69.7545 101.183 68.1945 102.384C66.5973 103.613 64.0008 104.237 60.4775 104.237H56.7541L59.7006 89.0757ZM68.6211 78.2464H49.7303C48.8417 78.2464 48.0777 78.8763 47.9082 79.7486L39.1433 124.845C39.0375 125.389 39.1804 125.952 39.5328 126.38C39.8855 126.808 40.4109 127.055 40.9654 127.055H50.7891C51.678 127.055 52.4419 126.425 52.6115 125.553L54.6499 115.066H61.5339C65.4268 115.066 68.7041 114.641 71.2737 113.804C73.9163 112.946 76.3477 111.49 78.4996 109.478C80.2793 107.84 81.7453 106.002 82.8561 104.014C83.9671 102.026 84.7654 99.8084 85.2286 97.4235C86.378 91.5125 85.4443 86.7792 82.4535 83.3559C79.4919 79.9655 74.8378 78.2464 68.6211 78.2464ZM54.502 106.093H60.4775C64.4383 106.093 67.3885 105.347 69.3269 103.855C71.2657 102.362 72.5732 99.8712 73.2527 96.3805C73.9027 93.029 73.6066 90.6638 72.3644 89.286C71.1205 87.9083 68.6332 87.2192 64.9011 87.2192H58.1703L54.502 106.093ZM68.6211 80.1028C74.304 80.1028 78.4498 81.5942 81.0556 84.5772C83.6611 87.5602 84.4458 91.7239 83.4062 97.0695C82.9783 99.2716 82.2546 101.285 81.2357 103.109C80.2156 104.934 78.8836 106.603 77.2375 108.116C75.2759 109.952 73.0967 111.26 70.6988 112.039C68.3009 112.821 65.2467 113.209 61.5339 113.209H53.1192L50.7891 125.199H40.9654L49.7303 80.1028H68.6211Z" fill="white"/>
<path d="M106.842 114.138C106.565 114.138 106.302 114.014 106.126 113.8C105.949 113.586 105.878 113.305 105.931 113.032L109.808 93.0791C110.177 91.1815 110.086 89.8195 109.552 89.244C109.225 88.8922 108.244 88.3022 105.342 88.3022H98.3176L93.4429 113.386C93.3581 113.823 92.976 114.138 92.5317 114.138H82.7853C82.5081 114.138 82.2454 114.014 82.0691 113.8C81.8927 113.586 81.8212 113.304 81.8741 113.032L90.639 67.936C90.7238 67.5001 91.1059 67.1851 91.5502 67.1851H101.297C101.574 67.1851 101.836 67.3089 102.013 67.5227C102.189 67.7368 102.261 68.018 102.208 68.2903L100.093 79.1747H107.649C113.406 79.1747 117.309 80.1895 119.583 82.2774C121.9 84.4074 122.623 87.813 121.732 92.4009L117.654 113.386C117.569 113.823 117.187 114.138 116.743 114.138H106.842Z" fill="black"/>
<path d="M101.297 66.2566H91.5503C90.6614 66.2566 89.8974 66.8866 89.7279 67.7588L80.963 112.855C80.8572 113.4 81.0001 113.962 81.3528 114.39C81.7056 114.818 82.2309 115.066 82.7854 115.066H92.5317C93.4203 115.066 94.1846 114.436 94.3541 113.564L99.0828 89.2302H105.342C108.239 89.2302 108.847 89.849 108.871 89.8756C109.047 90.0646 109.278 90.9402 108.897 92.9019L105.019 112.855C104.914 113.4 105.057 113.962 105.409 114.39C105.762 114.818 106.287 115.066 106.842 115.066H116.743C117.631 115.066 118.396 114.436 118.565 113.564L122.643 92.5779C123.6 87.6519 122.781 83.9566 120.211 81.594C117.758 79.3412 113.649 78.2462 107.649 78.2462H101.218L103.119 68.4674C103.225 67.9231 103.082 67.36 102.729 66.9324C102.376 66.5045 101.851 66.2566 101.297 66.2566ZM101.297 68.1131L98.9665 80.1026H107.649C113.112 80.1026 116.881 81.0562 118.954 82.9609C121.028 84.8669 121.65 87.9551 120.821 92.224L116.743 113.209H106.842L110.719 93.2562C111.16 90.9863 110.998 89.4381 110.232 88.6126C109.466 87.7871 107.835 87.3737 105.342 87.3737H97.5522L92.5317 113.209H82.7854L91.5503 68.1131H101.297Z" fill="white"/>
<path d="M137.153 105.165C140.886 105.165 143.673 104.476 145.437 103.119C147.181 101.777 148.386 99.4495 149.018 96.2032C149.606 93.1691 149.382 91.0506 148.351 89.9073C147.297 88.7396 145.018 88.1474 141.577 88.1474H135.611L132.304 105.165H137.153ZM117.642 126.127C117.365 126.127 117.102 126.003 116.926 125.789C116.749 125.576 116.677 125.294 116.73 125.022L125.495 79.9255C125.58 79.4896 125.962 79.1746 126.407 79.1746H145.297C151.234 79.1746 155.653 80.7866 158.431 83.9664C161.223 87.1626 162.085 91.6307 160.994 97.2465C160.549 99.5342 159.785 101.659 158.722 103.561C157.658 105.466 156.252 107.228 154.541 108.799C152.494 110.715 150.178 112.105 147.662 112.922C145.185 113.729 142.005 114.138 138.21 114.138H130.56L128.377 125.376C128.292 125.812 127.91 126.127 127.465 126.127H117.642Z" fill="black"/>
<path d="M136.377 89.0757H141.577C145.73 89.0757 147.172 89.9869 147.662 90.5299C148.476 91.4315 148.629 93.3325 148.106 96.0268C147.519 99.0438 146.43 101.183 144.87 102.384C143.273 103.613 140.677 104.237 137.153 104.237H133.43L136.377 89.0757ZM145.297 78.2464H126.407C125.518 78.2464 124.754 78.8763 124.584 79.7486L115.82 124.845C115.714 125.389 115.857 125.952 116.209 126.38C116.562 126.808 117.087 127.055 117.642 127.055H127.465C128.354 127.055 129.118 126.425 129.288 125.553L131.326 115.066H138.21C142.103 115.066 145.38 114.641 147.95 113.804C150.592 112.946 153.024 111.49 155.176 109.477C156.956 107.84 158.421 106.002 159.532 104.014C160.643 102.026 161.441 99.8084 161.905 97.4235C163.054 91.5122 162.12 86.7789 159.129 83.3556C156.168 79.9655 151.514 78.2464 145.297 78.2464ZM131.178 106.093H137.153C141.114 106.093 144.064 105.347 146.003 103.855C147.942 102.362 149.249 99.8712 149.929 96.3805C150.579 93.029 150.283 90.6638 149.04 89.286C147.796 87.9083 145.309 87.2192 141.577 87.2192H134.846L131.178 106.093ZM145.297 80.1028C150.98 80.1028 155.126 81.5942 157.732 84.5772C160.337 87.5602 161.122 91.7239 160.082 97.0695C159.654 99.2716 158.931 101.285 157.912 103.109C156.892 104.934 155.56 106.603 153.913 108.116C151.952 109.952 149.773 111.26 147.375 112.039C144.977 112.821 141.923 113.209 138.21 113.209H129.795L127.465 125.199H117.642L126.407 80.1028H145.297Z" fill="white"/>
</g>
<defs>
<radialGradient id="paint0_radial_1_800" cx="0" cy="0" r="1" gradientUnits="userSpaceOnUse" gradientTransform="translate(65.3616 70.8205) scale(112.333)">
<stop stop-color="#AEB2D5"/>
<stop offset="0.3" stop-color="#AEB2D5"/>
<stop offset="0.75" stop-color="#484C89"/>
<stop offset="1" stop-color="#484C89"/>
</radialGradient>
<clipPath id="clip0_1_800">
<rect width="200" height="200" fill="white"/>
</clipPath>
</defs>
</svg>
